# xmcd CD database file
#
# Track frame offsets:
#	150
#	11480
#	22592
#	36802
#	47767
#	57640
#	67750
#	77685
#	90907
#	102240
#	111590
#	122632
#	134847
#	147867
#	161825
#	177667
#	192050
#
# Disc length: 2833 seconds
#
# Revision: 7
# Processed by: cddbd v1.5.1PL0 Copyright (c) Steve Scherf et al.
# Submitted via: CDex 1.51
#
DISCID=e40b0f11
DTITLE=Screamin' Jay Hawkins - Voodoo Jive: The Best Of Screamin' Jay Hawkins
DYEAR=1990
DGENRE=Blues
TTITLE0=I Put A Spell On You
TTITLE1=Little Daemon
TTITLE2=Alligator Wine
TTITLE3=I Love Paris
TTITLE4=Person To Person
TTITLE5=Frenzy
TTITLE6=Do You Really Love Me?
TTITLE7=This Is All
TTITLE8=Just Don't Care
TTITLE9=You Made Me Love You
TTITLE10=Yellow Coat
TTITLE11=I Hear Voices
TTITLE12=Orange Colored Sky
TTITLE13=(she Put The) Wamee (On Me)
TTITLE14=Feast Of The Mau Mau
TTITLE15=Move Me
TTITLE16=Constipation Blues
EXTD=YEAR: 1990
EXTT0=
EXTT1=
EXTT2=
EXTT3=
EXTT4=
EXTT5=
EXTT6=
EXTT7=
EXTT8=
EXTT9=
EXTT10=
EXTT11=
EXTT12=
EXTT13=
EXTT14=
EXTT15=
EXTT16=
PLAYORDER=
